<svg xmlns="http://www.w3.org/2000/svg" viewBox="0 0 100 100" fill="none">
  <rect width="100" height="100" rx="22" fill="#6ec8f0"/>
  <path d="M50 22C35.64 22 24 33.64 24 48C24 52.8 25.36 57.28 27.76 61.04L50 78L72.24 61.04C74.64 57.28 76 52.8 76 48C76 33.64 64.36 22 50 22ZM50 30C59.94 30 68 38.06 68 48C68 51.2 67.16 54.2 65.68 56.8L50 68.8L34.32 56.8C32.84 54.2 32 51.2 32 48C32 38.06 40.06 30 50 30Z" fill="white"/>
  <path d="M50 34C42.27 34 36 40.27 36 48C36 50.4 36.6 52.67 37.68 54.64L50 64L62.32 54.64C63.4 52.67 64 50.4 64 48C64 40.27 57.73 34 50 34Z" fill="white"/>
  <rect x="44" y="54" width="12" height="4" rx="2" fill="white"/>
  <rect x="40" y="60" width="20" height="3" rx="1.5" fill="white"/>
</svg>

